<svg width="495" height="127" viewBox="0 0 495 127" fill="none" xmlns="http://www.w3.org/2000/svg">
<path d="M2.66871 118.195C0.159589 112.925 7.5557e-07 110.216 0 103.234C-3.8162e-07 99.7071 1.39875 96.266 4.74 94.7698C15.2194 89.9732 49.3042 97.9253 41.0982 84.7812C37.362 78.7966 30.3776 73.6339 26.6048 69.3211C11.7717 52.3648 9.40369 45.7 11.7717 35.4086C16.9354 12.9665 50.5028 6.16397 66.8546 0.575254C70.6515 -0.70091 74.8071 0.113995 77.4579 3.34311C80.1088 6.57223 79.1166 5.2853 80.1088 6.57231C81.1968 7.98371 81.7973 8.78374 82.7596 10.2627C84.5583 13.0272 85.4104 14.4145 86.6899 17.6436C87.9693 20.8727 85.0911 23.331 81.6993 24.5632C68.1429 29.4878 56.8461 31.9738 52.3068 35.4086C47.7675 38.8434 48.5143 44.8356 51.7036 47.7839C52.6149 48.6641 53.5262 49.4562 54.3362 50.1602C64.1068 58.9614 85.8832 76.7718 80.0613 95.2541C74.1382 114.001 58.2095 122.788 38.4295 125.676C26.7797 127.376 12.8098 127.67 9.07362 125.177C5.89367 123.055 3.7362 120.437 2.66871 118.195Z" fill="#A393DA"/>
<path d="M119.678 8.5665L117.434 22.494C116.765 26.739 120.203 30.5071 124.5 30.2209L146.184 29.3146C150.099 29.0284 153.393 32.1288 153.345 36.0399L152.391 117.506C152.391 121.226 155.351 124.279 159.075 124.279H184.045C187.817 124.279 190.873 121.131 190.729 117.363L187.674 35.9445C187.531 32.081 190.682 28.9331 194.501 29.0285L214.745 29.3625C218.613 29.4579 221.764 26.2622 221.573 22.3988L221 9.32987C220.857 5.75261 217.897 2.93848 214.316 2.93848L126.267 3.03369C122.972 3.03369 120.203 5.41853 119.678 8.66192V8.5665Z" fill="#A393DA"/>
<path d="M398.259 3.55859L420.365 5.27568C423.993 5.56186 426.715 8.70983 426.524 12.3348L425.664 26.5485C425.569 28.0271 425.951 29.4579 426.81 30.6981L437.839 47.0581C440.561 51.0646 446.529 50.9692 449.059 46.8196L459.133 30.555C459.849 29.4103 460.184 28.0748 460.136 26.6915L459.42 12.1917C459.229 8.61444 461.95 5.51415 465.531 5.22797L486.252 3.51088C489.976 3.177 493.271 6.0388 493.462 9.75915L494.846 32.749C494.942 34.1799 494.56 35.5631 493.796 36.8032L461.091 87.2665C460.231 88.602 459.849 90.2237 460.088 91.7977L463.43 116.648C463.956 120.654 460.852 124.232 456.794 124.232H431.633C427.765 124.232 424.71 120.94 424.948 117.125L426.667 91.7023C426.763 90.176 426.333 88.6974 425.473 87.4573L392.96 40.4282C392.243 39.3789 391.814 38.1388 391.766 36.851L391.002 10.4269C390.907 6.46807 394.249 3.27241 398.211 3.55859H398.259Z" fill="#A393DA"/>
<path d="M317.452 0.172382L296.731 0.0292969C293.867 0.0292969 291.288 1.84179 290.381 4.51281L252.377 114.74C250.801 119.271 254.382 123.898 259.156 123.564L278.015 122.276C280.546 122.086 282.742 120.559 283.697 118.222L287.564 109.16C288.615 106.727 291.002 105.105 293.676 105.105L323.516 104.962C326.094 104.962 328.433 106.441 329.579 108.73L334.02 117.888C335.213 120.321 337.744 121.847 340.465 121.656L360.565 120.368C365.101 120.082 368.061 115.456 366.343 111.211L323.564 4.27431C322.561 1.74638 320.126 0.0770039 317.405 0.0770039L317.452 0.172382ZM301.362 65.1832L302.938 60.7951C305.086 54.833 313.537 54.9284 315.542 60.9382L317.023 65.3263C318.503 69.6667 315.256 74.1502 310.673 74.1502H307.569C302.938 74.1502 299.691 69.5713 301.267 65.1832H301.362Z" fill="#A393DA"/>
</svg>
