<svg width="501" height="127" viewBox="0 0 501 127" fill="none" xmlns="http://www.w3.org/2000/svg">
<path d="M119 3.24347V89.9086C119 109.035 134.517 124.537 153.662 124.537H192.24C207.661 124.537 219.979 112.088 220.075 96.7292L220.743 10.5411C220.743 6.62994 217.401 3.48197 213.486 3.81585L193.243 5.53294C189.709 5.81912 186.988 8.87169 187.131 12.4013L189.28 77.3643C189.614 87.9053 181.163 96.5862 170.659 96.5862H165.599C158.914 96.5862 153.519 91.0533 153.662 84.3758L153.424 12.1628C153.424 8.68092 150.75 5.81912 147.265 5.53294L119 3.1958H119.286" fill="#FFDE67"/>
<path d="M443.341 0C411.686 0 386 28.2842 386 63.1983C386 98.1124 411.686 126.397 443.341 126.397C474.996 126.397 500.682 98.1124 500.682 63.1983C500.682 28.2842 474.996 0 443.341 0ZM443.341 96.2999C426.774 96.2999 413.358 81.5139 413.358 63.246C413.358 44.9781 426.774 30.1921 443.341 30.1921C459.908 30.1921 473.325 44.9781 473.325 63.246C473.325 81.5139 459.908 96.2999 443.341 96.2999Z" fill="#FFDE67"/>
<path d="M352.961 81.4662C356.637 81.2754 359.454 78.1751 359.311 74.5024L356.59 9.8732C356.446 6.20055 353.391 3.38645 349.714 3.48185L265.493 5.96207C261.865 6.05746 259 9.01467 259 12.6396V117.954C259 121.627 262.008 124.632 265.684 124.632H289.509C293.424 124.632 296.527 121.245 296.145 117.334L293.758 91.721C293.424 87.9052 296.336 84.5188 300.203 84.4234L305.026 84.2803C307.843 84.1849 310.421 85.902 311.471 88.5253L323.741 120.101C324.792 122.819 327.466 124.536 330.378 124.346L352.436 123.01C357.21 122.724 360.123 117.716 358.022 113.423L347.184 91.1009C345.083 86.8082 348.091 81.7523 352.866 81.5139L352.961 81.4662ZM292.899 51.8941V36.1065C292.899 32.5769 295.668 29.6197 299.201 29.4289L317.821 28.3796C321.593 28.1411 324.792 31.0983 324.887 34.8664L325.365 51.751C325.46 55.5191 322.452 58.6194 318.681 58.6194H299.583C295.906 58.6194 292.899 55.6145 292.899 51.9418V51.8941Z" fill="#FFDE67"/>
<path d="M82.7888 24.5159V9.92073C82.7888 6.24807 79.7809 3.24316 76.1046 3.24316H6.68422C3.0079 3.24316 0 6.24807 0 9.92073V115.76C0 119.385 2.86467 122.342 6.49324 122.438L80.4016 124.393C84.2212 124.489 87.3723 121.341 87.2768 117.525L86.7994 101.26C86.7039 97.6829 83.7915 94.8211 80.1629 94.7734L41.6809 94.3918C37.6226 94.3918 34.567 90.7669 35.1399 86.7603L35.8561 81.8476C36.3335 78.5565 39.1982 76.0762 42.5403 76.1239L71.6166 76.3624C74.911 76.3624 77.7279 74.0253 78.2531 70.7819L80.2584 58.81C80.9268 54.7557 77.8234 51.0354 73.6696 51.0354H40.726C36.8587 51.0354 33.7553 47.7443 34.0418 43.8809L34.6147 36.1063C34.9012 32.529 37.9568 29.7626 41.5376 29.9057L75.8181 31.2412C79.59 31.3843 82.7888 28.3794 82.7888 24.5637V24.5159Z" fill="#FFDE67"/>
</svg>
